/* XPM */
static char *_b8c902d6c0a44d093d25912aa208cffiPS6sgS6DwlSfmGv[] = {
/* columns rows colors chars-per-pixel */
"32 32 15 1 ",
"  c #3C281B",
". c #3D291C",
"X c #69462F",
"o c #313D5A",
"O c #4B2F53",
"+ c #405178",
"@ c #9F2726",
"# c #BD2C2C",
"$ c #8E5D3C",
"% c #8F5D3D",
"& c #7E4E8D",
"* c #637EBF",
"= c #815091",
"- c #8E58A0",
"; c #C66397",
/* pixels */
"%%$$$$$%%%%%%%%%%%%%%%%%%%%$$$$$",
"%%%%$$$$%%%%%%%%%%%%%%%%%%%%$$$$",
"%X@@. ****.....**@@@@@@...++++$$",
"%X##. ++++..+++++######...++++$$",
"%X##--++++ .+++++######;;;oooo$$",
"%X##--++++=-ooo++######;;;oooo$$",
"%X##--++++==ooo++######;;;oooo$$",
"%X@@&&****==ooo**@@@@@@===oooo$$",
"%X##==****&&ooo**######===oooo$$",
"%X##==****&&ooo**######;;;oooo$$",
"%X##--****=-+++**######;;;++++$$",
"%X##--****--+++**######;;;++++$$",
"%X##=-****--ooo**######;;;oooo$$",
"%X@@--****--ooo**@@@@@@;;;oooo$$",
"%X@@--****--ooo**@@@@@@;;;oooo$$",
"%XXXXXXXXXXXXXXXXXXXXXXXXXXXXX$$",
"$$$$$$%%%%%$$$$%$%$$%$%%%%%%$$%%",
"%X;;;@@@@@*****. **@@++++++***$%",
"%X;;;#####+++++  ++##+++++++++%%",
"%X;;;#####+++++OO++##oooooo+++%%",
"%X===#####+++++OO++##oooooo+++%%",
"%X===#####+++++==++##oooooo+++%%",
"%X;;;@@@@@*****==**@@oooooo***%%",
"%X;;;#####*****==**##oooooo***%%",
"%X;;;#####*****OO**##++++++***%%",
"%X;;;#####*****OO**##++++++***%%",
"%X;;;#####*****OO**##oooooo***%%",
"%X;;;@@@@@*****OO**@@oooooo***%%",
"%X;;;@@@@@*****OO**@@oooooo***%%",
"%XXXXXXXXXXXXXXXXXXXXXXXXXXXXX%%",
"%%$$$$$$%%%%%%%$%%$$$$$$%%%%%%%%",
"%%%%%%%%%$$$$$$$$%%%%%%%%%%%%%%%"
};
