/* XPM */
static char *ede21fc959fa4fbe9b598898ba6d1630W1MrQsJko6HlordV[] = {
/* columns rows colors chars-per-pixel */
"32 32 16 1 ",
"  c #3C281B",
". c #3D291C",
"X c #69462F",
"o c #313D5A",
"O c #4B2F53",
"+ c #405178",
"@ c #8E2423",
"# c #9F2726",
"$ c #BD2C2C",
"% c #BD2D2D",
"& c #8E5D3C",
"* c #8F5D3D",
"= c #7E4E8D",
"- c #637EBF",
"; c #815091",
": c #8E58A0",
/* pixels */
"&&&&&&&&*******&&&&&*****&&&&&**",
"&&&&&&*&******&&&&&&****&&&&&&**",
"&&@@@@.....::::.......----....X*",
"&&%%$%.....::::+++++..++++....X*",
"&&$$$$OOOOO::::+++++..++++::::X*",
"&&$$$$OOOOO====ooooo::++++::::X*",
"&&$$$$;;;;;====ooooo==++++::::X*",
"&&%$$$;;;;;====ooooo==----====X*",
"&&@@@@;;;;;====ooooo==----====X*",
"&&@@@@OOOOO::::ooooo==----====X*",
"&&@@@@OOOOO::::+++++::----::::X*",
"&&@@@@OOOOO::::+++++::----::::X*",
"&&@@@@OOOOO::::ooooo::----::::X*",
"&&@@@@OOOOO::::ooooo::----::::X*",
"&&@@@@OOOOO::::ooooo::----::::X*",
"&&XXXXXXXXXXXXXXXXXXXXXXXXXXXXX&",
"**&&*******&&&&&&&&*******&&&&&&",
"*&+++++----@@@@  #####   OOOOOX*",
"**+++++++++%$$$  $$$$$+++OOOOOX*",
"**ooooo++++$$$$OO$$$$$+++;;;;;X*",
"**ooooo++++$$$$OO$$$$$ooo;;;;;X*",
"**ooooo++++$$$$;;$$$$$ooo;;;;;X*",
"**ooooo----%$$$;;#####ooo;;;;;X*",
"**ooooo----@@@@;;$$$$$oooOOOOOX*",
"**+++++----@@@@OO$$$$$+++OOOOOX*",
"**+++++----@@@@OO$$$$$+++OOOOOX*",
"**ooooo----@@@@OO$$$$$oooOOOOOX*",
"**ooooo----@@@@OO#####oooOOOOOX*",
"**ooooo----@@@@OO#####oooOOOOOX*",
"**XXXXXXXXXXXXXXXXXXXXXXXXXXXXX*",
"********&&&&&&**&*******&&&&&&**",
"***************&&&&&&&&*********"
};
