/* XPM */
static char *_a1c85999cf34df2e044e448af15a61cX3Y6loL7JgN2dyjW[] = {
/* columns rows colors chars-per-pixel */
"32 32 22 1 ",
"  c #3C281B",
". c #3D291C",
"X c #3A3B19",
"o c #7B312E",
"O c #515221",
"+ c #69462F",
"@ c #313D5A",
"# c #4B2F53",
"$ c #405178",
"% c #654B70",
"& c #9F2726",
"* c #9E3E3A",
"= c #BD2C2C",
"- c #8E5D3C",
"; c #8F5D3D",
": c #BA4843",
"> c #FC6059",
", c #7E4E8D",
"< c #7F5E8D",
"1 c #637EBF",
"2 c #815091",
"3 c #8E58A0",
/* pixels */
"--------;;;;;;;;;;;;;;;;;;-----;",
"------;-;;;;;;;;;;;;;;;;;;----;;",
"--oooo.....3333...X...1111....+;",
"--oooo$$$..2333$$$$$..$$$$....+;",
"--%%%%$$$##2332$$$$$..$$$$..23+;",
"--oooo@@@##,222@@@@@33$$$$..33+;",
"--oooo@@@22,222@@@@@22$$$$..32+;",
"--oooo@@@22,222@@@@@221111..22+;",
"--oooo@@@22,222@@@@@221111..2,+-",
"--22<<@@@##2333@@@@@221111..22+-",
"--%%%%$$$##2333$$$$$231111..32+;",
"--%%%%$$$##3333$$$$$331111..32+;",
"--%%%%@@@##3333@@@@@331111..33+;",
"--%%%%@@@##3333@@@@@331111..33+;",
"--%%%%@@@##3333@@@@@331111..33+;",
"--+++++++++++++++++++++++++++++;",
"-------o;;;;----;;;;;;;;;;;;;;;;",
"--  $$$1111>>>> .&&32&...###..+;",
"--  $$$$$$$>>>> .==22=$$$###..+;",
"-- X@@@$$$$**;*##==22=$$$222..+;",
"-;&&@@@$$$$****##==2,=@@@222XX+;",
"-;==@@@,$$$*;:*,2==2,=@@@222OO+;",
";;==@@@1111=:::22&&2,&@@@222OO+;",
";;==@@@1111::::22==32=@@@###OO+;",
";;==$$$1111::::##==32=$$$###OO+;",
";;==$$$1111::::##==33=$$$###OO+;",
";;==@@@1111>>>>##==33=@@@###OO+;",
";;&&@@@1111>>>>##&&33&@@@###OO+;",
";;&&@@@1111>>>>##&&32&@@@###OO+;",
";;+++++++++++++++++++++++++++++;",
";;;;;;;;;;;;;;;;;;;;;;;;--;-;;;;",
";;;;;;;;;;;;;;;;;;;;---;;;;;;;;;"
};
