/* XPM */
static char *_ccd69983ab243be88e04ce94065727eGoXsHzqHszHDQ3Wa[] = {
/* columns rows colors chars-per-pixel */
"32 32 21 1 ",
"  c #3C281B",
". c #3D291C",
"X c #69462F",
"o c #436C2B",
"O c #313D5A",
"+ c #4B2F53",
"@ c #405178",
"# c #9F2726",
"$ c #BD2C2C",
"% c #8E5D3C",
"& c #8F5D3D",
"* c #568C37",
"= c #63A33F",
"- c #78C64B",
"; c #FFFC0A",
": c #98FC5E",
"> c #7E4E8D",
", c #637EBF",
"< c #815091",
"1 c #8E58A0",
"2 c #C66397",
/* pixels */
"&&%%%%%&&&&&&&&&&&&&&&&&&&&%%%%%",
"&&&&%%%%&&&&&&&&&&&&&&&&&&&&%%%%",
"&X... ,,,,.....,,====.....####%%",
"&X... @@@@..@@@@@====.....$$$$%%",
"&X1111@@@@ .@@@@@====22222$$$$%%",
"&X1111@@@@<1OOO@@====22222$$$$%%",
"&X1111@@@@<<OOO@@====22222$$$$%%",
"&X>>>>,,,,<<OOO,,====<<<<<####%%",
"&X>><<,,,,>>OOO,,----<<<<<$$$$%%",
"&X>><<,,,,>>OOO,,::::22222$$$$%%",
"&X1111,,,,<1@@@,,::::22222$$$$%%",
"&X1111,,,,11@@@,,::::22222$$$$%%",
"&X1111,,,,11OOO,,::::22222$$$$%%",
"&X1111,,,,11OOO,,::::22222####%%",
"&X<111,,,,11OOO,,::::22222####%%",
"&XXXXXXXXXXXXXXXXXXXXXXXXXXXXX%%",
"%%%%&&&&&&&&&&&&%&&&&&&&&&&&&&&&",
"&X#####...#####. <1<1oooo@@,,,&&",
"&X$$$$$@@@$$$$$..111<oooo@@@@@&&",
"&X$$$$$@@@$;;;$++111<****OO@@@&&",
"&X$$$$$OOO$$$$$++<>>>****OO@@@&&",
"&X$$$$$OOO$$$$$<<<>>>****OO@@@&&",
"&X#####OOO#####<<<<>>****OO,,,&&",
"&X$$$$$OOO$$$$$<<<<<>****OO,,,&&",
"&X$$$$$@@@$$$$$++1111====@@,,,&&",
"&X$$$$$@@@$$$$$++1111====@@,,,&&",
"&X$$$$$OOO$$$$$++1111====OO,,,&&",
"&X#####OOO#####++1111====OO,,,&&",
"&X#####OOO#####++1111====OO,,,&&",
"&XXXXXXXXXXXXXXXXXXXXXXXXXXXXX&&",
"&&%%%%%%&&&&&&&&&&&&&&&&&&&&&&&&",
"&&&&&&&&&&&&&&&&&&&&&&&&&&&&&&&&"
};
