/* XPM */
static char *_53af1a46d2e4f0db402459019734107kxUJpMgjZUn7NNN7[] = {
/* columns rows colors chars-per-pixel */
"32 32 15 1 ",
"  c None",
". c black",
"X c #242326",
"o c #395643",
"O c #414044",
"+ c #547760",
"@ c #EE5531",
"# c #9F5D4D",
"$ c #FF6C49",
"% c #CA8D7E",
"& c #66A491",
"* c #7FC5AF",
"= c #CAB196",
"- c #E4D4BB",
"; c white",
/* pixels */
"                                ",
"             $$$$$              ",
"            $$$$$@@             ",
"            $$$$@@@             ",
"           $$$$@@--@            ",
"           @-@-.--.@            ",
"           @-@---%-@            ",
"           @@@--##-@            ",
"           @@@@---@@            ",
"          @@$@@===@@            ",
"          @+$@oo===$@           ",
"          *+$@o++-+$@           ",
"          **$@o++O+@&           ",
"         ***+@++++X@&           ",
"         ***+++++oXo*&          ",
"         ***&++ooXo&*&          ",
"        ***&++++oOo&*&          ",
"        ***&+++++Ooo&&&         ",
"        *&&&+++++Ooo&&&         ",
"       ..--&OOooooXX&&-         ",
"        .--*++OOOXXo --         ",
"          ..**+++oo&            ",
"           *..;*oo&&            ",
"           *****&&&&            ",
"           *****&&&=            ",
"           *****&&&=            ",
"           ****&&&==            ",
"          *****&&o=-            ",
"          ****&&oo--            ",
"         ****&&oooo-            ",
"         ***&=ooooo-            ",
"        ***XX      XX           "
};
